# xmcd
#
# Track frame offsets:
#	150
#	18132
#	31167
#	47650
#	67062
#	82655
#	96970
#	115250
#	130175
#	148892
#	167677
#	183937
#	195725
#	212625
#	228505
#	238090
#	257492
#	270522
#	282300
#	298970
#
# Disc length: 4194 seconds
#
# Revision: 3
# Processed by: cddbd v1.5.1PL0 Copyright (c) Steve Scherf et al.
# Submitted via: MusicManager 7.0.3.0 
#
DISCID=21106014
DTITLE=Various Artist - 20 Years of Stony Plain - Disc 2
DYEAR=1900
DGENRE=
TTITLE0=The Duke Robillard Band - Tried
TTITLE1=Jimmy Witherspoon - Playful Baby
TTITLE2=The Holmes Brothers - Tell Me Again
TTITLE3=Maria Muldaur - Don't You Feel My Leg
TTITLE4=Lowell Fulson and The Powder Blues - Oh Well, Oh Well
TTITLE5=Long John Baldry - It's Too Late Brother
TTITLE6=Dutch Mason - Going Going Gone
TTITLE7=Gospel Hummingbirds - Great Change
TTITLE8=Coco Montoya - Monkey See, Monkey Do
TTITLE9=Jim Byrnes - That River
TTITLE10=Roosevelt Sykes - New York Boogie
TTITLE11=Amos Garret - Wrong Lake To Catch a Fish
TTITLE12=Downchild Blues Band - Rockin' Little Boogie
TTITLE13=King Biscuit Boy - Mighty Crazy
TTITLE14=King Biscuit Boy and Crowbar - Badly Bent
TTITLE15=Professor Longhair - Mess Around
TTITLE16=Ellen McIlwaine - I Want Whacha Got
TTITLE17=Johnny Shines and Sugar Blue - Blue Winding Mind
TTITLE18=Paul James and Sugar Blue - Gotta Gimmie Some of It
TTITLE19=Walter Shakey Horton and Hot Cottage - Shakey's Edmonton Blues
EXTD=
EXTT0=
EXTT1=
EXTT2=
EXTT3=
EXTT4=
EXTT5=
EXTT6=
EXTT7=
EXTT8=
EXTT9=
EXTT10=
EXTT11=
EXTT12=
EXTT13=
EXTT14=
EXTT15=
EXTT16=
EXTT17=
EXTT18=
EXTT19=
PLAYORDER=
